<?xml version="1.0" encoding="UTF-8"?>
<svg width="47px" height="46px" viewBox="0 0 47 46" version="1.1" xmlns="http://www.w3.org/2000/svg" xmlns:xlink="http://www.w3.org/1999/xlink">
    <!-- Generator: sketchtool 50.2 (55047) - http://www.bohemiancoding.com/sketch -->
    <title>D46379EB-412A-419E-92E4-39A8BB38D55E-40368-0001248E95D0561B</title>
    <desc>Created with sketchtool.</desc>
    <defs></defs>
    <g id="Pro-Services" stroke="none" stroke-width="1" fill="none" fill-rule="evenodd">
        <g id="Professional_Services_WHT_Conservative_Homepage" transform="translate(-697.000000, -2656.000000)" fill="#FDFDFD" fill-rule="nonzero">
            <g id="PS-Conservative-Footer" transform="translate(0.000000, 2629.000000)">
                <g id="Group-2" transform="translate(275.000000, 27.000000)">
                    <g id="Group" transform="translate(422.000000, 0.000000)">
                        <path d="M22.466,13.94375 C22.513,13.8958333 22.56,13.8 22.607,13.7520833 C21.291,11.7395833 20.492,9.72708333 20.492,8.48125 C20.492,5.89375 22.372,4.74375 23.641,4.74375 C24.91,4.74375 26.837,5.94166667 26.837,8.48125 C26.837,10.0145833 25.615,12.6979167 23.829,15.09375 C22.654,16.6270833 21.432,17.96875 20.539,18.83125 C21.385,20.1729167 22.184,21.5625 22.842,22.9520833 C24.064,21.85 25.756,20.125 27.448,17.8729167 C29.281,15.4291667 31.349,12.1708333 31.349,8.48125 C31.349,3.88125 27.871,0.0958333333 23.641,0.0958333333 C19.411,0.0958333333 15.933,3.83333333 15.933,8.48125 C15.933,11.9791667 17.766,14.9979167 19.458,17.3458333 C20.633,16.24375 21.667,15.0458333 22.466,13.94375 Z" id="Shape"></path>
                        <path d="M9.494,27.6 C9.494,27.6 9.494,27.6 9.494,27.6 C11.28,27.6 13.207,27.2166667 15.557,26.4020833 C15.04,25.3479167 14.288,23.9104167 13.348,22.5208333 C13.301,22.4729167 13.254,22.3770833 13.207,22.3291667 C10.951,22.9520833 8.789,23.0958333 7.614,22.7125 C5.217,21.8979167 4.7,19.69375 5.076,18.4958333 C5.405,17.4416667 6.627,16.3395833 8.225,16.3395833 C8.648,16.3395833 9.118,16.4354167 9.541,16.5791667 C10.951,17.0583333 13.113,19.0708333 14.758,21.5145833 C15.604,22.8083333 16.497,24.3416667 17.202,25.875 C18.706,25.44375 20.257,25.15625 21.761,24.9166667 C20.868,22.85625 19.693,20.7479167 18.471,18.8791667 C16.779,16.3395833 14.335,13.3208333 10.904,12.1708333 C10.011,11.8833333 9.118,11.7395833 8.225,11.7395833 C4.794,11.7395833 1.692,13.94375 0.705,17.0583333 C0.094,18.975 0.282,21.13125 1.269,23 C2.256,24.9645833 3.995,26.4020833 6.157,27.1208333 C7.238,27.4083333 8.366,27.6 9.494,27.6 Z" id="Shape"></path>
                        <path d="M22.842,31.19375 C22.936,29.6125 23.124,28.03125 23.359,26.45 C21.761,26.59375 19.364,26.9770833 16.732,27.7916667 C13.865,28.6541667 10.293,30.04375 8.131,33.0625 C5.452,36.8 6.11,41.9270833 9.541,44.4666667 C10.763,45.3770833 12.267,45.85625 13.912,45.85625 C16.544,45.85625 18.988,44.5625 20.633,42.2625 C22.654,39.4354167 22.889,35.8895833 22.889,32.9666667 C21.761,33.1104167 20.163,33.4458333 18.565,33.925 C18.471,33.9729167 18.377,34.0208333 18.33,34.0208333 C18.189,36.4166667 17.672,38.525 16.967,39.5791667 C15.933,41.0166667 14.664,41.25625 13.959,41.25625 C13.301,41.25625 12.69,41.0645833 12.22,40.7291667 C11.609,40.2979167 11.186,39.53125 11.045,38.7166667 C10.951,38.0458333 10.951,36.94375 11.797,35.79375 C12.69,34.5479167 15.228,33.1104167 18.001,32.2479167 C19.881,31.6729167 21.62,31.3375 22.842,31.19375 Z" id="Shape"></path>
                        <path d="M31.302,28.03125 C31.114,29.18125 30.879,30.8104167 30.832,32.5354167 C30.832,32.63125 30.832,32.6791667 30.832,32.775 C33.041,33.6375 34.874,34.7875 35.579,35.79375 C37.036,37.8541667 36.19,39.9625 35.156,40.7291667 C34.686,41.0645833 34.075,41.25625 33.417,41.25625 C32.759,41.25625 31.443,41.0166667 30.409,39.5791667 C29.516,38.3333333 28.952,35.4104167 29.046,32.4395833 C29.093,30.475 29.328,28.7020833 29.563,27.45625 C28.106,26.88125 26.649,26.2104167 25.333,25.4916667 C24.863,27.6479167 24.581,30.0916667 24.534,32.34375 C24.487,35.4104167 24.675,39.2916667 26.79,42.2625 C28.388,44.5145833 30.832,45.8083333 33.511,45.8083333 C35.109,45.8083333 36.613,45.3291667 37.882,44.41875 C39.48,43.2208333 40.561,41.3520833 40.843,39.2916667 C41.172,37.0875 40.608,34.8833333 39.292,33.0145833 C37.224,30.2354167 33.981,28.89375 31.302,28.03125 Z" id="Shape"></path>
                        <path d="M46.577,17.0104167 C45.59,13.8958333 42.488,11.6916667 39.057,11.6916667 C38.164,11.6916667 37.271,11.8354167 36.378,12.1229167 C33.135,13.1770833 30.832,15.9083333 29.187,18.25625 C30.55,18.975 31.96,19.6458333 33.229,20.0770833 C33.323,20.125 33.37,20.125 33.464,20.1729167 C34.968,18.3041667 36.613,16.9145833 37.741,16.53125 C38.211,16.3875 38.634,16.2916667 39.057,16.2916667 C40.702,16.2916667 41.877,17.3458333 42.206,18.4479167 C42.582,19.69375 42.065,21.8979167 39.668,22.6645833 C39.245,22.8083333 38.681,22.85625 38.023,22.85625 C36.472,22.85625 34.498,22.4729167 32.571,21.8020833 C30.738,21.1791667 29.14,20.3645833 28.059,19.7416667 C27.072,20.9875 25.991,22.1854167 24.91,23.2395833 C26.32,24.0541667 28.435,25.2041667 31.067,26.1145833 C32.759,26.6895833 35.25,27.5041667 37.788,27.5041667 C38.963,27.5041667 40.044,27.3125 41.078,26.9770833 C45.449,25.6833333 47.893,21.13125 46.577,17.0104167 Z" id="Shape"></path>
                    </g>
                </g>
            </g>
        </g>
    </g>
</svg>