<?xml version="1.0" encoding="UTF-8"?>
<svg width="35px" height="35px" viewBox="0 0 35 35" version="1.1" xmlns="http://www.w3.org/2000/svg" xmlns:xlink="http://www.w3.org/1999/xlink">
    <!-- Generator: Sketch 50.2 (55047) - http://www.bohemiancoding.com/sketch -->
    <title>Shape</title>
    <desc>Created with Sketch.</desc>
    <defs></defs>
    <g id="Symbols" stroke="none" stroke-width="1" fill="none" fill-rule="evenodd">
        <g id="Global/Footer" transform="translate(-743.000000, -278.000000)" fill="#526774">
            <path d="M760.5,313 C750.835,313 743,305.165 743,295.5 C743,285.835 750.835,278 760.5,278 C770.165,278 778,285.835 778,295.5 C778,305.165 770.165,313 760.5,313 L760.5,313 Z M752.211,304.017 L756.071,304.017 L756.071,293.195 L752.211,293.195 L752.211,304.017 L752.211,304.017 Z M754.167,287.98 C752.846,287.98 751.983,288.787 751.983,289.849 C751.983,290.888 752.821,291.719 754.116,291.719 L754.141,291.719 C755.487,291.719 756.325,290.888 756.325,289.849 C756.3,288.787 755.487,287.98 754.167,287.98 L754.167,287.98 Z M769.989,297.813 C769.989,294.488 768.084,292.941 765.546,292.941 C763.495,292.941 762.58,293.991 762.067,294.729 L762.067,293.195 L758.206,293.195 C758.257,294.212 758.206,304.017 758.206,304.017 L762.067,304.017 L762.067,297.974 C762.067,297.651 762.092,297.327 762.194,297.097 C762.472,296.45 763.108,295.781 764.174,295.781 C765.571,295.781 766.13,296.774 766.13,298.229 L766.13,304.017 L769.989,304.017 L769.989,297.813 L769.989,297.813 Z M762.041,294.765 C762.049,294.753 762.059,294.74 762.067,294.729 L762.067,294.765 L762.041,294.765 L762.041,294.765 Z" id="Shape"></path>
        </g>
    </g>
</svg>