<?xml version="1.0" encoding="UTF-8"?>
<svg width="260px" height="40px" viewBox="0 0 260 40" version="1.1" xmlns="http://www.w3.org/2000/svg" xmlns:xlink="http://www.w3.org/1999/xlink">
    <!-- Generator: Sketch 50.2 (55047) - http://www.bohemiancoding.com/sketch -->
    <title>XC_Logo_Dark Copy</title>
    <desc>Created with Sketch.</desc>
    <defs></defs>
    <g id="UI-Kit" stroke="none" stroke-width="1" fill="none" fill-rule="evenodd">
        <g id="XC-Logo">
            <g id="XC_Logo_Dark-Copy">
                <path d="M66.4130073,11.1937572 C63.9203148,7.13629511 59.2049563,4.59442523 54.0009786,4.59442523 C45.4923924,4.59442523 39.2064723,10.7062753 39.2064723,19.680707 C39.2064723,28.6569714 45.6558777,34.7138423 54.0009786,34.7138423 C59.7468459,34.7138423 64.7322308,31.6863232 67.1183823,27.0900653 L71.8337408,28.3875735 C68.6356734,35.0931985 61.969512,39.3650794 54.0009786,39.3650794 C43.1080778,39.3650794 34.3276284,31.0907156 34.3276284,19.680707 C34.3276284,8.27253111 43.1080778,0 54.0009786,0 C61.4808929,0 67.8770278,3.89252461 71.2367437,9.89441636 L66.4130073,11.1937572" id="Fill-1" fill="#35434B"></path>
                <polyline id="Fill-2" fill="#35434B" points="103.618582 33.7586631 103.618582 38.0952381 77.5550122 38.0952381 77.5550122 0.634920635 103.29012 0.634920635 103.29012 4.96968188 82.3186422 4.96968188 82.3186422 16.2600119 99.1834141 16.2600119 99.1834141 20.4877644 82.3186422 20.4877644 82.3186422 33.7586631 103.618582 33.7586631"></polyline>
                <polyline id="Fill-3" fill="#35434B" points="143.667482 0.634920635 143.667482 38.0952381 139.076644 38.0952381 116.790489 9.94649562 116.006688 8.76758566 116.11866 10.3201194 116.11866 38.0952381 111.246944 38.0952381 111.246944 0.634920635 115.782745 0.634920635 138.125834 28.6222431 138.852701 29.8537506 138.740729 28.3012169 138.740729 0.634920635 143.667482 0.634920635"></polyline>
                <polyline id="Fill-4" fill="#35434B" points="177.99511 0.634920635 177.99511 4.96968188 165.383239 4.96968188 165.383239 38.0952381 160.676031 38.0952381 160.676031 4.96968188 148.117359 4.96968188 148.117359 0.634920635 177.99511 0.634920635"></polyline>
                <polygon id="Fill-5" fill="#35434B" points="184.987775 0.634920635 189.437653 0.634920635 189.437653 38.0952381 184.987775 38.0952381"></polygon>
                <path d="M255.527027,0.634920635 L242.712515,21.940878 L242.220858,23.0418164 L241.675599,21.940878 L228.914689,0.634920635 L224.388114,0.634920635 L224.388114,23.3720979 C224.388114,30.8603451 220.515851,35.4842865 213.153929,35.4842865 C205.792008,35.4842865 201.864294,30.8603451 201.864294,23.3720979 L201.864294,0.634920635 L197.066015,0.634920635 L197.066015,23.1519102 C197.066015,33.722785 203.010263,40 213.153929,40 C223.242146,40 229.186394,33.722785 229.186394,23.1519102 L229.186394,10.7654201 L229.079191,9.16812636 L229.842553,10.7654201 L241.183942,29.7034268 L243.257774,29.7034268 L254.601011,10.7654201 L255.364374,9.11214644 L255.255322,10.7654201 L255.255322,39.1752292 L260,39.1752292 L260,0.634920635 L255.527027,0.634920635" id="Fill-6" fill="#35434B"></path>
                <polyline id="Fill-7" fill="#35434B" points="14.6210269 12.5410709 6.22696887 0.634920635 0.635696822 0.634920635 11.8253909 16.5079365 14.6210269 12.5410709"></polyline>
                <polyline id="Fill-8" fill="#35434B" points="19.0709046 26.1370925 29.0563242 39.3650794 34.9633252 39.3650794 22.0253496 22.2222222 19.0709046 26.1370925"></polyline>
                <polyline id="Fill-9" fill="#11869B" points="0 38.0952381 5.78897895 38.0952381 33.6919315 0.634920635 27.9048033 0.634920635 0 38.0952381"></polyline>
            </g>
        </g>
    </g>
</svg>