<?xml version="1.0" encoding="UTF-8"?>
<svg width="35px" height="35px" viewBox="0 0 35 35" version="1.1" xmlns="http://www.w3.org/2000/svg" xmlns:xlink="http://www.w3.org/1999/xlink">
    <!-- Generator: Sketch 50.2 (55047) - http://www.bohemiancoding.com/sketch -->
    <title>Shape</title>
    <desc>Created with Sketch.</desc>
    <defs></defs>
    <g id="Symbols" stroke="none" stroke-width="1" fill="none" fill-rule="evenodd">
        <g id="Global/Footer" transform="translate(-824.000000, -279.000000)" fill="#526774">
            <path d="M841.499,313.996 C831.831,313.996 823.996,306.161 823.996,296.496 C823.996,286.829 831.831,278.994 841.499,278.994 C851.164,278.994 858.999,286.829 858.999,296.496 C858.999,306.161 851.164,313.996 841.499,313.996 L841.499,313.996 Z M837.592,284.93 L836.69,288.397 L835.751,284.93 L834.359,284.93 C834.639,285.748 834.929,286.57 835.208,287.39 C835.632,288.623 835.896,289.551 836.017,290.184 L836.017,293.761 L837.339,293.761 L837.339,290.184 L838.93,284.93 L837.592,284.93 L837.592,284.93 Z M842.464,289.325 C842.464,288.623 842.343,288.107 842.093,287.775 C841.764,287.325 841.299,287.1 840.703,287.1 C840.108,287.1 839.643,287.325 839.313,287.775 C839.059,288.109 838.941,288.623 838.941,289.325 L838.941,291.63 C838.941,292.329 839.059,292.848 839.313,293.178 C839.643,293.627 840.108,293.852 840.703,293.852 C841.299,293.852 841.764,293.627 842.093,293.178 C842.343,292.848 842.464,292.329 842.464,291.63 L842.464,289.325 L842.464,289.325 Z M846.873,287.18 L845.681,287.18 L845.681,292.21 C845.417,292.583 845.167,292.768 844.927,292.768 C844.768,292.768 844.674,292.674 844.647,292.488 C844.633,292.45 844.633,292.305 844.633,292.025 L844.633,287.18 L843.444,287.18 L843.444,292.383 C843.444,292.848 843.485,293.163 843.549,293.363 C843.67,293.695 843.934,293.852 844.319,293.852 C844.754,293.852 845.205,293.588 845.681,293.043 L845.681,293.761 L846.873,293.761 L846.873,287.18 L846.873,287.18 Z M850.924,296.641 C850.685,295.602 849.835,294.837 848.812,294.721 C846.391,294.452 843.941,294.45 841.5,294.452 C839.061,294.45 836.61,294.452 834.188,294.721 C833.167,294.837 832.317,295.602 832.08,296.641 C831.739,298.12 831.735,299.734 831.735,301.257 C831.735,302.778 831.735,304.394 832.074,305.871 C832.314,306.91 833.162,307.675 834.185,307.791 C836.606,308.061 839.057,308.062 841.497,308.061 C843.938,308.062 846.387,308.061 848.809,307.791 C849.832,307.675 850.68,306.91 850.919,305.871 C851.26,304.394 851.26,302.778 851.26,301.257 C851.26,299.734 851.263,298.12 850.924,296.641 L850.924,296.641 Z M849.505,304.68 C849.178,305.154 848.695,305.387 848.078,305.387 C847.461,305.387 846.99,305.165 846.649,304.719 C846.399,304.394 846.272,303.88 846.272,303.189 L846.272,300.907 C846.272,300.211 846.385,299.703 846.635,299.372 C846.976,298.926 847.445,298.704 848.048,298.704 C848.641,298.704 849.111,298.926 849.44,299.372 C849.688,299.703 849.805,300.211 849.805,300.907 L849.805,302.255 L847.445,302.255 L847.445,303.411 C847.445,304.013 847.644,304.313 848.048,304.313 C848.34,304.313 848.508,304.156 848.576,303.841 C848.587,303.777 848.602,303.514 848.602,303.042 L849.805,303.042 L849.805,303.213 C849.805,303.595 849.791,303.855 849.781,303.974 C849.741,304.235 849.648,304.472 849.505,304.68 L849.505,304.68 Z M847.447,301.273 L848.627,301.273 L848.627,300.672 C848.627,300.068 848.429,299.767 848.038,299.767 C847.644,299.767 847.447,300.068 847.447,300.672 L847.447,301.273 L847.447,301.273 Z M844.291,305.387 C843.871,305.387 843.465,305.153 843.07,304.666 L843.07,305.298 L841.89,305.298 L841.89,296.557 L843.07,296.557 L843.07,299.411 C843.451,298.942 843.857,298.704 844.291,298.704 C844.759,298.704 845.076,298.952 845.233,299.441 C845.312,299.703 845.352,300.133 845.352,300.75 L845.352,303.343 C845.352,303.944 845.312,304.378 845.233,304.654 C845.076,305.138 844.759,305.387 844.291,305.387 L844.291,305.387 Z M844.172,300.656 C844.172,300.068 843.999,299.767 843.66,299.767 C843.465,299.767 843.268,299.86 843.07,300.054 L843.07,304.023 C843.268,304.221 843.465,304.313 843.66,304.313 C844,304.313 844.172,304.023 844.172,303.436 L844.172,300.656 L844.172,300.656 Z M839.689,304.586 C839.22,305.124 838.775,305.387 838.341,305.387 C837.961,305.387 837.699,305.231 837.58,304.902 C837.515,304.705 837.475,304.394 837.475,303.934 L837.475,298.785 L838.655,298.785 L838.655,303.579 C838.655,303.855 838.655,303.999 838.666,304.037 C838.696,304.221 838.785,304.313 838.942,304.313 C839.18,304.313 839.427,304.131 839.689,303.761 L839.689,298.785 L840.871,298.785 L840.871,305.298 L839.689,305.298 L839.689,304.586 L839.689,304.586 Z M835.891,305.298 L834.578,305.298 L834.578,297.786 L833.19,297.786 L833.19,296.557 L837.304,296.557 L837.304,297.786 L835.891,297.786 L835.891,305.298 L835.891,305.298 Z M840.703,292.768 C840.318,292.768 840.133,292.464 840.133,291.853 L840.133,289.086 C840.133,288.478 840.318,288.173 840.703,288.173 C841.086,288.173 841.271,288.478 841.271,289.086 L841.271,291.853 C841.271,292.464 841.086,292.768 840.703,292.768 L840.703,292.768 Z" id="Shape"></path>
        </g>
    </g>
</svg>