<?xml version="1.0" encoding="UTF-8"?>
<svg width="104px" height="104px" viewBox="0 0 104 104" version="1.1" xmlns="http://www.w3.org/2000/svg" xmlns:xlink="http://www.w3.org/1999/xlink">
    <!-- Generator: Sketch 50.2 (55047) - http://www.bohemiancoding.com/sketch -->
    <title>Dev Strategy Icon</title>
    <desc>Created with Sketch.</desc>
    <defs></defs>
    <g id="Desktop" stroke="none" stroke-width="1" fill="none" fill-rule="evenodd">
        <g id="XC_Landing-Work" transform="translate(-188.000000, -661.000000)">
            <g id="Dev-Strategy-Icon" transform="translate(190.000000, 663.000000)">
                <circle id="Oval-5" stroke="#FFFFFF" stroke-width="3" cx="50" cy="50" r="50"></circle>
                <g id="Digital-Strat" transform="translate(16.000000, 21.000000)">
                    <g transform="translate(0.000000, 0.149919)">
                        <rect id="Rectangle-path" fill="#FFFFFF" fill-rule="nonzero" x="14.8713117" y="0" width="2.1244731" height="2.07772362"></rect>
                        <rect id="Rectangle-path" fill="#FFFFFF" fill-rule="nonzero" x="19.1202579" y="0" width="2.1244731" height="2.07772362"></rect>
                        <rect id="Rectangle-path" fill="#FFFFFF" fill-rule="nonzero" x="23.3692041" y="0" width="2.1244731" height="2.07772362"></rect>
                        <rect id="Rectangle-path" fill="#FFFFFF" fill-rule="nonzero" x="27.6181503" y="0" width="2.1244731" height="2.07772362"></rect>
                        <rect id="Rectangle-path" fill="#FFFFFF" fill-rule="nonzero" x="61.6097198" y="24.9326835" width="2.1244731" height="2.07772362"></rect>
                        <rect id="Rectangle-path" fill="#FFFFFF" fill-rule="nonzero" x="61.6097198" y="29.0881307" width="2.1244731" height="2.07772362"></rect>
                        <rect id="Rectangle-path" fill="#FFFFFF" fill-rule="nonzero" x="10.6223655" y="0" width="2.1244731" height="2.07772362"></rect>
                        <rect id="Rectangle-path" fill="#FFFFFF" fill-rule="nonzero" x="10.6223655" y="4.15544725" width="2.1244731" height="2.07772362"></rect>
                        <rect id="Rectangle-path" fill="#FFFFFF" fill-rule="nonzero" x="23.3692041" y="37.3990252" width="2.1244731" height="2.07772362"></rect>
                        <path d="M48.8628812,33.243578 L48.8628812,22.8549599 L63.7341929,22.8549599 L63.7341929,0 L31.8670965,0 L31.8670965,8.3108945 L0,8.3108945 L0,33.243578 L0,35.3213016 L0,43.6321961 L16.9957848,43.6321961 L16.9957848,47.4728682 L13.9482281,51.9430906 L34.9135909,51.9430906 L31.8670965,47.4728682 L31.8670965,43.6321961 L36.1160426,43.6321961 L36.1160426,56.0985378 L67.9831391,56.0985378 L67.9831391,33.243578 L48.8628812,33.243578 Z M33.9915696,2.07772362 L61.6097198,2.07772362 L61.6097198,20.7772362 L33.9915696,20.7772362 L33.9915696,2.07772362 Z M2.1244731,10.3886181 L31.8670965,10.3886181 L31.8670965,15.5829272 L26.5559137,15.5829272 L26.5559137,17.6606508 L31.8670965,17.6606508 L31.8670965,19.7383744 L26.5559137,19.7383744 L26.5559137,21.8160981 L31.8670965,21.8160981 L31.8670965,22.8549599 L46.7384081,22.8549599 L46.7384081,33.243578 L36.1160426,33.243578 L2.1244731,33.243578 L2.1244731,10.3886181 Z M30.9440129,49.865367 L17.9188683,49.865367 L19.1202579,48.1024185 L19.1202579,43.6321961 L29.7426234,43.6321961 L29.7426234,48.1024185 L30.9440129,49.865367 Z M31.8670965,41.5544725 L29.7426234,41.5544725 L19.1202579,41.5544725 L16.9957848,41.5544725 L2.1244731,41.5544725 L2.1244731,35.3213016 L36.1160426,35.3213016 L36.1160426,41.5544725 L31.8670965,41.5544725 Z M65.858666,54.0208142 L38.2405157,54.0208142 L38.2405157,35.3213016 L65.858666,35.3213016 L65.858666,54.0208142 Z" id="Shape" fill="#FFFFFF" fill-rule="nonzero"></path>
                        <rect id="Rectangle-path" fill="#FFFFFF" fill-rule="nonzero" x="26.5559137" y="23.8938217" width="13.8090751" height="2.07772362"></rect>
                        <rect id="Rectangle-path" fill="#FFFFFF" fill-rule="nonzero" x="26.5559137" y="28.0492689" width="7.43565584" height="2.07772362"></rect>
                        <g id="Arrows-" transform="translate(5.842301, 6.083252)" fill="#0EC9DF">
                            <path d="M54.1040237,35.710399 L54.1258956,36.9358692 C54.1258956,37.1801197 54.4024744,37.4434727 54.6469074,37.4434727 C54.8913403,37.4434727 55.2169929,37.1614936 55.2169929,36.9172431 L55.1652939,34.0205878 C55.1652939,33.7763373 54.9508179,33.602661 54.706385,33.602661 L51.7447959,33.6532182 C51.500363,33.6532182 51.3199953,33.9639558 51.3199953,34.2082063 C51.3199953,34.4524568 51.5181618,34.6504754 51.7625948,34.6504754 L53.0546312,34.6504754 L44.2708283,43.3629137 L45.3681118,44.4813196 L54.1040237,35.710399 Z" id="Shape-Copy-8" fill-rule="nonzero" transform="translate(49.743911, 39.041990) scale(-1, 1) rotate(1.000000) translate(-49.743911, -39.041990) "></path>
                            <path d="M32.6216331,4.4563513 C32.7705278,4.60196956 32.9657996,4.67487815 33.1609696,4.67487815 C33.3561397,4.67487815 33.5514114,4.60206903 33.7003061,4.4563513 L34.7882342,3.39236327 L35.8761624,4.4563513 C36.0250571,4.60196956 36.2203288,4.67487815 36.4154989,4.67487815 C36.6106689,4.67487815 36.8059407,4.60206903 36.9548354,4.4563513 C37.2527266,4.16501533 37.2527266,3.69265119 36.9548354,3.40141468 L35.8669073,2.33742664 L36.9548354,1.27343861 C37.2527266,0.982102632 37.2527266,0.509738495 36.9548354,0.218501983 C36.6569443,-0.0728339944 36.1739518,-0.0728339944 35.8761624,0.218501983 L34.7882342,1.28249002 L33.7003061,0.218501983 C33.402415,-0.0728339944 32.9194225,-0.0728339944 32.6216331,0.218501983 C32.3237419,0.509837961 32.3237419,0.982202098 32.6216331,1.27343861 L33.7095612,2.33742664 L32.6216331,3.40141468 C32.3237419,3.69265119 32.3237419,4.16511479 32.6216331,4.4563513 Z" id="Shape" fill-rule="nonzero"></path>
                            <path d="M13.5013752,24.7141566 C13.6502699,24.8597749 13.8455417,24.9326835 14.0407117,24.9326835 C14.2358818,24.9326835 14.4311535,24.8598744 14.5800483,24.7141566 L15.6679764,23.6501686 L16.7559045,24.7141566 C16.9047992,24.8597749 17.100071,24.9326835 17.295241,24.9326835 C17.4904111,24.9326835 17.6856828,24.8598744 17.8345775,24.7141566 C18.1324687,24.4228207 18.1324687,23.9504565 17.8345775,23.65922 L16.7466494,22.595232 L17.8345775,21.5312439 C18.1324687,21.239908 18.1324687,20.7675438 17.8345775,20.4763073 C17.5366864,20.1849713 17.0536939,20.1849713 16.7559045,20.4763073 L15.6679764,21.5402953 L14.5800483,20.4763073 C14.2821571,20.1849713 13.7991646,20.1849713 13.5013752,20.4763073 C13.2034841,20.7676433 13.2034841,21.2400074 13.5013752,21.5312439 L14.5893033,22.595232 L13.5013752,23.65922 C13.2034841,23.9504565 13.2034841,24.4229201 13.5013752,24.7141566 Z" id="Shape-Copy-6" fill-rule="nonzero"></path>
                            <path d="M0.223418351,11.2089531 C0.372313066,11.3545713 0.567584823,11.4274799 0.762754876,11.4274799 C0.95792493,11.4274799 1.15319669,11.3546708 1.3020914,11.2089531 L2.39001952,10.144965 L3.47794764,11.2089531 C3.62684236,11.3545713 3.82211411,11.4274799 4.01728417,11.4274799 C4.21245422,11.4274799 4.40772598,11.3546708 4.55662069,11.2089531 C4.85451183,10.9176171 4.85451183,10.445253 4.55662069,10.1540165 L3.46869257,9.09002842 L4.55662069,8.02604039 C4.85451183,7.73470441 4.85451183,7.26234027 4.55662069,6.97110376 C4.25872956,6.67976778 3.77573707,6.67976778 3.47794764,6.97110376 L2.39001952,8.03509179 L1.3020914,6.97110376 C1.00420027,6.67976778 0.521207781,6.67976778 0.223418351,6.97110376 C-0.0744727835,7.26243974 -0.0744727835,7.73480388 0.223418351,8.02604039 L1.31134647,9.09002842 L0.223418351,10.1540165 C-0.0744727835,10.445253 -0.0744727835,10.9177166 0.223418351,11.2089531 Z" id="Shape-Copy-5" fill-rule="nonzero"></path>
                            <path d="M40.0572889,4.4563513 C40.2061836,4.60196956 40.4014554,4.67487815 40.5966254,4.67487815 C40.7917955,4.67487815 40.9870673,4.60206903 41.135962,4.4563513 L42.2238901,3.39236327 L43.3118182,4.4563513 C43.4607129,4.60196956 43.6559847,4.67487815 43.8511547,4.67487815 C44.0463248,4.67487815 44.2415965,4.60206903 44.3904913,4.4563513 C44.6883824,4.16501533 44.6883824,3.69265119 44.3904913,3.40141468 L43.3025631,2.33742664 L44.3904913,1.27343861 C44.6883824,0.982102632 44.6883824,0.509738495 44.3904913,0.218501983 C44.0926001,-0.0728339944 43.6096076,-0.0728339944 43.3118182,0.218501983 L42.2238901,1.28249002 L41.135962,0.218501983 C40.8380708,-0.0728339944 40.3550783,-0.0728339944 40.0572889,0.218501983 C39.7593978,0.509837961 39.7593978,0.982202098 40.0572889,1.27343861 L41.145217,2.33742664 L40.0572889,3.40141468 C39.7593978,3.69265119 39.7593978,4.16511479 40.0572889,4.4563513 Z" id="Shape-Copy-3" fill-rule="nonzero"></path>
                            <path d="M35.8083427,43.9331002 C35.9572374,44.0787184 36.1525092,44.151627 36.3476793,44.151627 C36.5428493,44.151627 36.7381211,44.0788179 36.8870158,43.9331002 L37.9749439,42.8691121 L39.062872,43.9331002 C39.2117667,44.0787184 39.4070385,44.151627 39.6022085,44.151627 C39.7973786,44.151627 39.9926504,44.0788179 40.1415451,43.9331002 C40.4394362,43.6417642 40.4394362,43.1694 40.1415451,42.8781635 L39.0536169,41.8141755 L40.1415451,40.7501875 C40.4394362,40.4588515 40.4394362,39.9864873 40.1415451,39.6952508 C39.8436539,39.4039149 39.3606614,39.4039149 39.062872,39.6952508 L37.9749439,40.7592389 L36.8870158,39.6952508 C36.5891246,39.4039149 36.1061322,39.4039149 35.8083427,39.6952508 C35.5104516,39.9865868 35.5104516,40.458951 35.8083427,40.7501875 L36.8962708,41.8141755 L35.8083427,42.8781635 C35.5104516,43.1694 35.5104516,43.6418636 35.8083427,43.9331002 Z" id="Shape-Copy-7" fill-rule="nonzero"></path>
                            <path d="M47.4929448,11.728384 C47.6418395,11.8740022 47.8371112,11.9469108 48.0322813,11.9469108 C48.2274513,11.9469108 48.4227231,11.8741017 48.5716178,11.728384 L49.6595459,10.664396 L50.747474,11.728384 C50.8963688,11.8740022 51.0916405,11.9469108 51.2868106,11.9469108 C51.4819806,11.9469108 51.6772524,11.8741017 51.8261471,11.728384 C52.1240382,11.437048 52.1240382,10.9646839 51.8261471,10.6734474 L50.738219,9.60945933 L51.8261471,8.54547129 C52.1240382,8.25413532 52.1240382,7.78177118 51.8261471,7.49053467 C51.528256,7.19919869 51.0452635,7.19919869 50.747474,7.49053467 L49.6595459,8.5545227 L48.5716178,7.49053467 C48.2737267,7.19919869 47.7907342,7.19919869 47.4929448,7.49053467 C47.1950536,7.78187064 47.1950536,8.25423478 47.4929448,8.54547129 L48.5808729,9.60945933 L47.4929448,10.6734474 C47.1950536,10.9646839 47.1950536,11.4371475 47.4929448,11.728384 Z" id="Shape-Copy-4" fill-rule="nonzero"></path>
                            <path d="M38.2405157,36.8795943 C36.7738731,36.8795943 35.5849244,35.7168086 35.5849244,34.2824398 C35.5849244,32.848071 36.7738731,31.6852853 38.2405157,31.6852853 C39.7071584,31.6852853 40.8961071,32.848071 40.8961071,34.2824398 C40.8961071,35.7168086 39.7071584,36.8795943 38.2405157,36.8795943 Z M38.2405157,35.8407325 C39.1205013,35.8407325 39.8338706,35.1430611 39.8338706,34.2824398 C39.8338706,33.4218185 39.1205013,32.7241471 38.2405157,32.7241471 C37.3605302,32.7241471 36.6471609,33.4218185 36.6471609,34.2824398 C36.6471609,35.1430611 37.3605302,35.8407325 38.2405157,35.8407325 Z" id="Combined-Shape"></path>
                        </g>
                    </g>
                    <g id="Main-screen" transform="translate(15.776576, 23.309079) rotate(-270.000000) translate(-15.776576, -23.309079) translate(6.276576, 13.809079)" fill="#0EC9DF">
                        <polygon id="Path" points="13.1078542 12.9857726 13.1078542 14.2607881 11.1534838 14.2607881 11.1534838 12.9857726"></polygon>
                        <path d="M5.32635985,13.6357307 L5.98301517,12.5347513 C5.5126858,12.2656647 5.1140413,11.8831868 4.82990107,11.4274799 L3.71782792,12.0910931 C4.11400996,12.7265927 4.66970453,13.2608836 5.32635985,13.6357307 L5.32635985,13.6357307 Z" id="Path"></path>
                        <path d="M2.65559137,9.70385289 C2.65572817,9.77012049 2.65709621,9.8363881 2.66024268,9.90278957 L3.96178825,9.76128481 L3.95850497,7.79146359 L2.65559137,7.79146359 L2.65559137,9.70385289 L2.65559137,9.70385289 Z" id="Path"></path>
                        <polygon id="Path" points="2.65559137 4.15544725 3.95850497 4.15544725 3.95850497 6.06797042 2.65559137 6.06797042"></polygon>
                        <polygon id="Path" points="7.43565584 12.9857726 9.39002624 12.9857726 9.39002624 14.2607881 7.43565584 14.2607881"></polygon>
                        <path d="M18.2530061,16.621789 L16.9957848,16.9539302 C17.0700689,17.2235524 17.1078266,17.5021441 17.1078266,17.7820745 L17.1078266,18.4195822 L18.4107402,18.4195822 L18.4107402,17.7820745 C18.4107402,17.3899577 18.3579342,16.9991796 18.2530061,16.621789 L18.2530061,16.621789 Z" id="Path"></path>
                        <path d="M17.1793183,14.6763328 C16.6516684,14.1364192 15.9910458,13.7315844 15.2680409,13.5052036 L14.8713117,14.7190386 C15.3871965,14.8810261 15.860262,15.1709971 16.2379756,15.5573573 L17.1793183,14.6763328 L17.1793183,14.6763328 Z" id="Path"></path>
                        <path d="M3.52772379,1.60970031 L5.58982413,3.08187905 C5.85903107,3.21940063 6.23592458,3.13641388 6.39135085,2.94727105 C6.54677711,2.75812822 6.56269658,2.27012054 6.34740634,2.09289243 L3.52765539,0 L0.642010996,2.09289243 C0.492321903,2.21804803 0.427496354,2.62406522 0.642010996,2.9061995 C0.856525637,3.18833378 1.29454217,3.17014255 1.41406622,3.08187905 L3.52772379,1.60970031 Z" id="Path"></path>
                    </g>
                </g>
            </g>
        </g>
    </g>
</svg>