<?xml version="1.0" encoding="UTF-8"?>
<svg width="35px" height="35px" viewBox="0 0 35 35" version="1.1" xmlns="http://www.w3.org/2000/svg" xmlns:xlink="http://www.w3.org/1999/xlink">
    <!-- Generator: Sketch 50.2 (55047) - http://www.bohemiancoding.com/sketch -->
    <title>Shape</title>
    <desc>Created with Sketch.</desc>
    <defs></defs>
    <g id="Symbols" stroke="none" stroke-width="1" fill="none" fill-rule="evenodd">
        <g id="Global/Footer" transform="translate(-662.000000, -278.000000)" fill="#526774">
            <path d="M679.5,313 C669.835,313 662,305.165 662,295.5 C662,285.835 669.835,278 679.5,278 C689.165,278 697,285.835 697,295.5 C697,305.165 689.165,313 679.5,313 L679.5,313 Z M689.428,288.297 C688.594,288.759 687.672,289.095 686.69,289.277 C685.905,288.491 684.784,288.001 683.545,288.001 C681.165,288.001 679.234,289.809 679.234,292.04 C679.234,292.357 679.272,292.666 679.346,292.96 C675.764,292.792 672.588,291.184 670.462,288.74 C670.092,289.337 669.879,290.03 669.879,290.771 C669.879,292.172 670.64,293.409 671.796,294.133 C671.09,294.112 670.426,293.931 669.844,293.628 L669.844,293.679 C669.844,295.636 671.329,297.269 673.301,297.639 C672.94,297.732 672.559,297.78 672.166,297.78 C671.888,297.78 671.618,297.756 671.355,297.71 C671.903,299.313 673.495,300.481 675.381,300.514 C673.906,301.597 672.048,302.243 670.028,302.243 C669.68,302.243 669.337,302.224 669,302.187 C670.907,303.332 673.173,304.001 675.607,304.001 C683.535,304.001 687.87,297.845 687.87,292.509 C687.87,292.333 687.865,292.159 687.857,291.985 C688.699,291.415 689.43,290.705 690.008,289.895 C689.235,290.217 688.404,290.433 687.533,290.531 C688.423,290.03 689.106,289.239 689.428,288.297 L689.428,288.297 Z" id="Shape"></path>
        </g>
    </g>
</svg>